<svg width="40" height="52" viewBox="0 0 40 52" fill="none" xmlns="http://www.w3.org/2000/svg">
<path d="M33.75 0H6.25C4.5924 0 3.00269 0.526784 1.83058 1.46447C0.65848 2.40215 0 3.67392 0 5V47C0 48.3261 0.65848 49.5979 1.83058 50.5355C3.00269 51.4732 4.5924 52 6.25 52H33.75C34.5708 52 35.3835 51.8707 36.1418 51.6194C36.9001 51.3681 37.5891 50.9998 38.1694 50.5355C38.7498 50.0712 39.2102 49.52 39.5242 48.9134C39.8383 48.3068 40 47.6566 40 47V5C40 4.34339 39.8383 3.69321 39.5242 3.08658C39.2102 2.47996 38.7498 1.92876 38.1694 1.46447C37.5891 1.00017 36.9001 0.631876 36.1418 0.380602C35.3835 0.129329 34.5708 0 33.75 0ZM37.5 47C37.5 47.7957 37.1049 48.5587 36.4016 49.1213C35.6984 49.6839 34.7446 50 33.75 50H6.25C5.25544 50 4.30161 49.6839 3.59835 49.1213C2.89509 48.5587 2.5 47.7957 2.5 47V5C2.5 4.20435 2.89509 3.44129 3.59835 2.87868C4.30161 2.31607 5.25544 2 6.25 2H33.75C34.7446 2 35.6984 2.31607 36.4016 2.87868C37.1049 3.44129 37.5 4.20435 37.5 5V47Z" fill="black"/>
<path d="M5 42.0001H35V8.00012H5V42.0001ZM7.5 10.0001H32.5V40.0001H7.5V10.0001Z" fill="black"/>
<path d="M20 47.9999C21.3807 47.9999 22.5 47.1044 22.5 45.9999C22.5 44.8953 21.3807 43.9999 20 43.9999C18.6193 43.9999 17.5 44.8953 17.5 45.9999C17.5 47.1044 18.6193 47.9999 20 47.9999Z" fill="black"/>
<path d="M25 4H15V6H25V4Z" fill="black"/>
</svg>
