<svg width="55" height="45" viewBox="0 0 55 45" fill="none" xmlns="http://www.w3.org/2000/svg">
<path d="M54.9496 43.9134C54.9796 43.7978 55 43.6759 55 43.5475V1.19499C55 1.06585 54.9796 0.943081 54.949 0.826691C54.9445 0.810747 54.9419 0.794802 54.9368 0.778858C54.896 0.642538 54.836 0.519771 54.7607 0.412149C54.7556 0.404975 54.755 0.396206 54.7499 0.389031C54.7467 0.385045 54.7429 0.38345 54.7397 0.379464C54.6593 0.27264 54.5642 0.186543 54.4577 0.121971C54.4494 0.117187 54.443 0.110809 54.4347 0.106026C54.3339 0.0494256 54.2242 0.0175384 54.1087 0.00797212C54.0972 0.00717493 54.0864 0.0039853 54.0749 0.0039853C54.064 0.00318811 54.0545 0 54.0436 0H0.957659C0.946813 0 0.936604 0.00318811 0.925758 0.0039853C0.91555 0.00478249 0.905342 0.00717493 0.895133 0.00797212C0.778377 0.0175384 0.666725 0.0502234 0.564642 0.107621C0.558262 0.11081 0.553158 0.11639 0.546778 0.119579C0.438316 0.184152 0.341975 0.271843 0.260948 0.380261C0.257758 0.384247 0.253929 0.385045 0.250739 0.389031C0.245635 0.395409 0.244997 0.404178 0.239893 0.411353C0.164608 0.518974 0.103996 0.642538 0.0631634 0.778858C0.0580593 0.794802 0.0555072 0.810746 0.0510411 0.827487C0.0204164 0.943878 0 1.06665 0 1.19579V43.5491C0 43.6798 0.0210543 43.8042 0.052317 43.9222C0.0567831 43.9381 0.0593352 43.9533 0.0638013 43.9692C0.105272 44.1063 0.166521 44.2299 0.242445 44.3375C0.246911 44.3439 0.248187 44.3519 0.252653 44.3583C0.256482 44.3638 0.261586 44.367 0.266052 44.3726C0.297314 44.4133 0.331767 44.4491 0.367496 44.4842C0.383446 44.4994 0.397483 44.5177 0.414071 44.5321C0.45618 44.5687 0.501479 44.5982 0.548054 44.6253C0.559538 44.6317 0.569746 44.6421 0.581231 44.6476C0.696711 44.709 0.823676 44.7441 0.957021 44.7441H54.0423C54.1757 44.7441 54.3027 44.7098 54.4181 44.6476C54.436 44.6381 54.4526 44.6237 54.4698 44.6126C54.5094 44.5879 54.5489 44.5623 54.5853 44.5313C54.6044 44.5145 54.6217 44.493 54.6402 44.4747C54.6727 44.442 54.7046 44.4093 54.7327 44.3718C54.7378 44.3654 54.7435 44.3607 54.7486 44.3543C54.7537 44.3471 54.755 44.3375 54.7601 44.3304C54.8348 44.2235 54.8947 44.1008 54.9356 43.9652C54.9419 43.9477 54.9451 43.931 54.9496 43.9134ZM1.91468 3.90705L18.0226 22.2911L1.91468 40.8219V3.90705ZM34.9294 21.3903C34.863 21.4445 34.7928 21.49 34.7373 21.5665C34.7163 21.5952 34.7092 21.6327 34.6907 21.6629L27.5003 29.8693L3.42422 2.39078H51.5764L34.9294 21.3903ZM19.4416 23.9102L26.8546 32.3709C27.0378 32.5797 27.2687 32.6842 27.5003 32.6842C27.7319 32.6842 27.9629 32.5797 28.1453 32.3709L35.4666 24.0155L51.5719 42.3525H3.41018L19.4416 23.9102ZM36.8861 22.3956L53.086 3.90705V40.841L36.8861 22.3956Z" fill="black"/>
</svg>
