<svg width="70" height="60" viewBox="0 0 70 60" fill="none" xmlns="http://www.w3.org/2000/svg">
<path d="M28.5147 49.3744L27.0205 34.3486L21.2523 36.693L18.5955 53.5916C18.3971 54.8563 18.8926 56.0998 19.849 56.9167L30.877 52.4344C29.5672 51.924 28.6517 50.7493 28.5147 49.3744Z" fill="#DADADA"/>
<path d="M21.5596 36.9277L18.9322 53.6411C18.7094 55.056 19.4303 56.4546 20.7299 57.1202L24.7132 59.1606C25.1293 59.3745 25.6158 59.3933 26.0499 59.2181L36.0062 55.1711C36.1598 55.1073 36.1701 54.9672 36.1701 54.9259C36.1688 54.8846 36.1534 54.7458 35.9972 54.6882L30.8155 52.7754C29.3405 52.2312 28.329 50.9402 28.1766 49.4077L26.7272 34.826L21.5596 36.9277ZM25.443 60C25.0832 60 24.726 59.9162 24.3982 59.7485L20.4136 57.7082C18.8592 56.9113 17.9924 55.2362 18.2613 53.5398L20.9181 36.6424C20.936 36.5286 21.0128 36.4323 21.123 36.3872L26.8911 34.0416C26.9884 34.0003 27.1037 34.0091 27.1958 34.0629C27.288 34.1167 27.3482 34.2105 27.3597 34.3156L28.8527 49.3427C28.9807 50.6224 29.8245 51.7008 31.0562 52.1562L36.2367 54.0677C36.6029 54.2016 36.8423 54.5343 36.8487 54.9159C36.8551 55.2962 36.6272 55.6365 36.2674 55.7829L26.3098 59.8311C26.0307 59.945 25.7375 60 25.443 60Z" fill="#41404D"/>
<path d="M3.94104 57.5272C3.88854 57.5272 3.83732 57.516 3.78995 57.4922L0.934684 56.0973C0.339303 55.737 0 55.1428 0 54.4923V20.4311C0 18.8511 0.965413 17.4399 2.45707 16.8332L33.5846 4.10418C33.7562 4.03413 33.9572 4.11294 34.0302 4.28182C34.1031 4.45071 34.0199 4.64587 33.8471 4.71592L2.71826 17.4449C1.48013 17.9491 0.679886 19.1213 0.679886 20.4311V54.4923C0.679886 54.9126 0.898833 55.2954 1.26502 55.5194L4.09212 56.898C4.26113 56.9805 4.32899 57.1794 4.24449 57.3433C4.18559 57.4597 4.06651 57.5272 3.94104 57.5272Z" fill="#41404D"/>
<path d="M38.0077 3.00513C37.8732 3.00513 37.7465 2.92756 37.6927 2.79746C37.6223 2.62732 37.7068 2.43467 37.8796 2.36586L43.1177 0.304201C43.6363 0.0940313 44.6977 -0.177438 45.3827 0.157833L48.0408 1.33503C48.2111 1.41009 48.2879 1.6065 48.2098 1.77288C48.1317 1.93927 47.9332 2.01308 47.7604 1.93802L45.0908 0.757066C44.7105 0.573167 43.9243 0.694515 43.3751 0.919697L38.1344 2.98136C38.0922 2.99762 38.0499 3.00513 38.0077 3.00513Z" fill="#41404D"/>
<path d="M5.16102 18.3996L46.5547 1.57357C47.5918 1.15199 48.7339 1.89633 48.7339 2.99347V36.812C48.7339 38.2456 47.8556 39.5392 46.5048 40.0959L5.10084 57.1696C4.06245 57.5975 2.91394 56.8531 2.91394 55.7522V21.691C2.91394 20.2511 3.80125 18.9526 5.16102 18.3996Z" fill="white"/>
<path d="M7.25806 21.7886V17.5477L9.29516 16.7195V20.9604L7.25806 21.7886Z" fill="#DADADA"/>
<path d="M46.5542 1.57338H46.5618H46.5542ZM47.1636 1.78479C47.0023 1.78479 46.841 1.81607 46.6848 1.87987L5.2898 18.7047C4.05422 19.2101 3.25398 20.3823 3.25398 21.6908V55.752C3.25398 56.1649 3.455 56.5314 3.80711 56.7578C4.15793 56.9868 4.58174 57.0256 4.96842 56.8629L46.3711 39.7904C47.6002 39.2838 48.3941 38.1141 48.3941 36.8105V2.99327C48.3941 2.58419 48.1943 2.21764 47.8448 1.98996C47.6361 1.85485 47.4005 1.78479 47.1636 1.78479ZM4.48828 57.6235C4.11696 57.6235 3.74949 57.5184 3.43195 57.312C2.89419 56.9643 2.5741 56.3813 2.5741 55.752V21.6908C2.5741 20.1121 3.53823 18.6997 5.02988 18.0942L46.4236 1.26688C47.0138 1.02669 47.686 1.08923 48.2225 1.43826C48.7551 1.78479 49.074 2.36651 49.074 2.99327V36.8105C49.074 38.383 48.1175 39.7917 46.6361 40.4022L5.23346 57.4759C4.99403 57.5735 4.74051 57.6235 4.48828 57.6235Z" fill="#41404D"/>
<path d="M24.1204 44.6854V41.1225L26.1575 40.2944V43.8573L24.1204 44.6854Z" fill="#DADADA"/>
<path d="M48.7334 34.5321L2.91467 53.436L48.7334 34.5321Z" fill="#DADADA"/>
<path d="M2.91396 53.7688C2.7808 53.7688 2.65532 53.6925 2.60027 53.5661C2.52857 53.3972 2.60923 53.2021 2.7808 53.1308L48.6008 34.2256C48.7775 34.153 48.9747 34.2356 49.0464 34.4032C49.1181 34.5721 49.0374 34.7672 48.8658 34.8385L3.04712 53.7425C3.00231 53.7613 2.9575 53.7688 2.91396 53.7688Z" fill="#41404D"/>
<path d="M48.7334 34.532V36.8063C48.7334 38.2375 47.8537 39.5335 46.4978 40.0902L5.10286 57.1727C4.0555 57.5943 2.91467 56.8562 2.91467 55.7566V53.436L48.7334 34.532Z" fill="#DADADA"/>
<path d="M3.25398 53.6569V55.7561C3.25398 56.1639 3.45116 56.5267 3.79815 56.7531C4.14897 56.9833 4.57662 57.0246 4.97482 56.8644L46.3659 39.7844C47.5977 39.2778 48.3928 38.1093 48.3928 36.8058V35.0319L3.25398 53.6569ZM4.48828 57.6226C4.11184 57.6226 3.73925 57.515 3.41915 57.3061C2.89035 56.9595 2.5741 56.3791 2.5741 55.7561V53.4367C2.5741 53.3028 2.65732 53.1827 2.78152 53.1314L48.6002 34.2262C48.7065 34.1849 48.8268 34.1924 48.9203 34.2562C49.0151 34.3175 49.0727 34.4214 49.0727 34.5315V36.8058C49.0727 38.3771 48.1137 39.7857 46.6297 40.3962L5.23602 57.4774C4.99403 57.575 4.74051 57.6226 4.48828 57.6226Z" fill="#41404D"/>
<path d="M6.25989 22.1941L45.8918 6.08489V32.2059L6.25989 48.5479V22.1941Z" fill="#F4C151"/>
<path d="M6.59999 22.4158V48.0477L45.552 31.986V6.58181L6.59999 22.4158ZM6.26069 48.8796C6.19411 48.8796 6.12881 48.8621 6.07247 48.8233C5.97772 48.7633 5.92139 48.6595 5.92139 48.5481V22.1944C5.92139 22.0605 6.00333 21.9392 6.13009 21.8879L45.762 5.77741C45.8657 5.73613 45.986 5.74739 46.0795 5.80869C46.1742 5.86998 46.2319 5.97382 46.2319 6.08391V32.2062C46.2319 32.3401 46.1499 32.4602 46.0244 32.5127L6.39257 48.8534C6.35032 48.8709 6.3055 48.8796 6.26069 48.8796Z" fill="#41404D"/>
<path d="M2.91394 53.4358L48.7339 34.5406L2.91394 53.4358Z" fill="white"/>
<path d="M2.91396 53.7675C2.7808 53.7675 2.65532 53.6911 2.60027 53.5648C2.52857 53.3959 2.60923 53.2007 2.7808 53.1294L48.6021 34.2355C48.7775 34.1617 48.9759 34.2442 49.0476 34.4119C49.1206 34.582 49.0387 34.7759 48.8671 34.8472L3.04712 53.7412C3.00231 53.76 2.9575 53.7675 2.91396 53.7675Z" fill="#41404D"/>
<path d="M27.2513 19.2053L64.0906 4.23075C64.8269 3.93176 65.6373 4.45968 65.6373 5.23906V28.4127C65.6373 29.2071 65.1508 29.924 64.4018 30.233L27.7225 45.3576C26.9069 45.6942 26.0055 45.1099 26.0055 44.2455V21.0293C26.0055 20.2324 26.4972 19.5118 27.2513 19.2053Z" fill="white"/>
<path d="M10.5269 7.63461L21.286 3.16851C22.1592 2.80572 23.1285 3.43247 23.1285 4.35947V27.2379C23.1285 28.0198 22.656 28.7291 21.9236 29.0456L11.2132 33.6718C10.3105 34.0621 9.29517 33.4154 9.29517 32.4521V9.45357C9.29517 8.66043 9.78043 7.94486 10.5269 7.63461Z" fill="white"/>
<path d="M10.5276 7.6347H10.5353H10.5276ZM21.8079 3.39503C21.6773 3.39503 21.5467 3.4213 21.4186 3.47384L10.6608 7.94119C10.0373 8.1989 9.63521 8.79313 9.63521 9.45366V32.4509C9.63521 32.7962 9.8055 33.1015 10.1013 33.2916C10.3996 33.4793 10.7504 33.508 11.0756 33.3692L21.7861 28.7429C22.3956 28.479 22.7899 27.8885 22.7899 27.238V4.35956C22.7899 4.03179 22.6286 3.73906 22.3469 3.55766C22.1817 3.45007 21.9961 3.39503 21.8079 3.39503ZM10.6608 34.1185C10.3356 34.1185 10.0116 34.0285 9.72996 33.8483C9.24469 33.5393 8.95532 33.0164 8.95532 32.4509V9.45366C8.95532 8.52541 9.52125 7.69224 10.3945 7.32945L21.1536 2.86335C21.6683 2.64818 22.2547 2.70197 22.7221 3.00347C23.1907 3.30621 23.4685 3.81287 23.4685 4.35956V27.238C23.4685 28.1512 22.9167 28.9794 22.0614 29.3484L11.3509 33.9759C11.1294 34.0722 10.8938 34.1185 10.6608 34.1185Z" fill="#41404D"/>
<path d="M20.7887 12.2912L12.0052 15.8616V18.1997L20.7721 14.6368L20.7887 12.2912Z" fill="white"/>
<path d="M12.3454 16.0839V17.7014L20.4336 14.4138L20.4452 12.7912L12.3454 16.0839ZM12.0061 18.5321C11.9395 18.5321 11.8742 18.5121 11.8166 18.4758C11.7231 18.4133 11.6655 18.3107 11.6655 18.1993V15.8625C11.6655 15.7286 11.7488 15.6072 11.8755 15.556L20.659 11.9856C20.7614 11.9393 20.8818 11.9556 20.9778 12.0156C21.0725 12.0782 21.1289 12.1832 21.1276 12.2946L21.1122 14.639C21.111 14.7703 21.029 14.8904 20.9022 14.9417L12.1354 18.5058C12.0945 18.5233 12.0496 18.5321 12.0061 18.5321Z" fill="#41404D"/>
<path d="M20.7887 16.3587L12.0052 19.9291V22.2672L20.7721 18.7043L20.7887 16.3587Z" fill="white"/>
<path d="M12.3454 20.1509V21.7697L20.4336 18.482L20.4452 16.8582L12.3454 20.1509ZM12.0061 22.6003C11.9395 22.6003 11.8742 22.5803 11.8166 22.544C11.7231 22.4815 11.6655 22.3789 11.6655 22.2676V19.9294C11.6655 19.7956 11.7488 19.6742 11.8755 19.6229L20.659 16.0526C20.7614 16.0075 20.8818 16.0213 20.9778 16.0838C21.0725 16.1451 21.1289 16.2502 21.1276 16.3616L21.1122 18.7072C21.111 18.8386 21.029 18.9587 20.9022 19.0099L12.1354 22.5741C12.0945 22.5916 12.0496 22.6003 12.0061 22.6003Z" fill="#41404D"/>
<path d="M14.5456 27.3691C14.4125 27.3691 14.287 27.2928 14.2319 27.164C14.159 26.9963 14.2422 26.8012 14.415 26.7311L18.1013 25.2337C18.2741 25.1611 18.4726 25.2424 18.5456 25.4138C18.6185 25.5815 18.5353 25.7766 18.3612 25.8454L14.6762 27.3429C14.6327 27.3616 14.5892 27.3691 14.5456 27.3691Z" fill="#41404D"/>
<path d="M9.66538 11.0383C9.53222 11.0383 9.40674 10.9608 9.35169 10.8332C9.27871 10.6643 9.36193 10.4704 9.53478 10.4003L22.9993 4.92591C23.1696 4.8596 23.3707 4.93717 23.4424 5.1048C23.5153 5.27494 23.4334 5.46884 23.2593 5.5389L9.79598 11.0121C9.75245 11.0308 9.70892 11.0383 9.66538 11.0383Z" fill="#41404D"/>
<path d="M65.6373 29.7223V16.3978L55.1727 20.7651C54.4262 21.0753 53.9409 21.7921 53.9409 22.584V34.5649L65.6373 29.7223Z" fill="#DADADA"/>
<path d="M64.0898 4.2304H64.0975H64.0898ZM64.5226 4.47684C64.4201 4.47684 64.319 4.49686 64.2204 4.53689L27.3823 19.5115C26.7524 19.7667 26.3452 20.3634 26.3452 21.0302V44.2451C26.3452 44.5441 26.4912 44.8106 26.746 44.9745C27.0008 45.1409 27.3068 45.1721 27.591 45.052L64.2678 29.9274C64.8939 29.6696 65.2972 29.0754 65.2972 28.4136V5.23871C65.2972 4.97975 65.1717 4.74957 64.9515 4.60695C64.8196 4.52063 64.6711 4.47684 64.5226 4.47684ZM27.2428 45.7864C26.9368 45.7864 26.6333 45.6988 26.3708 45.5287C25.9304 45.2422 25.6666 44.7618 25.6666 44.2451V21.0302C25.6666 20.0932 26.2377 19.2575 27.1211 18.8997L63.9592 3.9239C64.4099 3.74126 64.9221 3.78754 65.3279 4.05401C65.7338 4.31797 65.9771 4.76083 65.9771 5.23871V28.4136C65.9771 29.3444 65.4099 30.1776 64.5315 30.5391L27.8548 45.665C27.6576 45.7463 27.4489 45.7864 27.2428 45.7864Z" fill="#41404D"/>
<path d="M61.9524 11.2521C61.8218 11.2521 61.6912 11.2783 61.5645 11.3309L45.292 18.1364C44.6685 18.3953 44.2664 18.9896 44.2664 19.6501V38.1825L62.9358 30.5051V12.2166C62.9358 11.8888 62.7757 11.5948 62.4953 11.4147C62.3276 11.3071 62.1419 11.2521 61.9524 11.2521ZM43.9271 39.0132C43.8606 39.0132 43.7953 38.9957 43.7376 38.9581C43.6442 38.8968 43.5865 38.7943 43.5865 38.6817V19.6501C43.5865 18.7218 44.1512 17.8887 45.0257 17.5259L61.2982 10.7204C61.8193 10.5065 62.4057 10.5578 62.8705 10.8618C63.3365 11.1645 63.6144 11.6687 63.6144 12.2166V30.7253C63.6144 30.8591 63.5324 30.9805 63.407 31.0318L44.0577 38.9882C44.0155 39.0044 43.9719 39.0132 43.9271 39.0132Z" fill="#41404D"/>
<path d="M30.4303 23.7554L39.676 19.9174C40.4276 19.6059 41.2599 20.1438 41.2599 20.9407V39.7759L29.3715 44.6798V25.3192C29.3715 24.6374 29.7889 24.0219 30.4303 23.7554Z" fill="white"/>
<path d="M30.431 23.7561H30.4387H30.431ZM40.1248 20.1595C40.0186 20.1595 39.9123 20.1807 39.8099 20.2233L30.5642 24.0626C30.0469 24.2765 29.7114 24.7694 29.7114 25.3186V44.1788L40.9212 39.5538V20.9413C40.9212 20.6749 40.7894 20.4372 40.5627 20.2896C40.4283 20.2033 40.2772 20.1595 40.1248 20.1595ZM29.3721 45.0107C29.3056 45.0107 29.2403 44.9932 29.1852 44.9557C29.0892 44.8944 29.0328 44.7906 29.0328 44.6792V25.3186C29.0328 24.5017 29.5296 23.7686 30.2979 23.4496L39.5435 19.6115C40.0019 19.4226 40.523 19.4689 40.9379 19.7366C41.3527 20.0043 41.6011 20.456 41.6011 20.9413V39.7753C41.6011 39.9091 41.5192 40.0292 41.3937 40.0805L29.5053 44.9857C29.463 45.002 29.417 45.0107 29.3721 45.0107Z" fill="#41404D"/>
<path d="M31.8959 35.1594C31.7627 35.1594 31.6372 35.0831 31.5822 34.9543C31.5092 34.7866 31.5924 34.5915 31.7653 34.5214L39.107 31.5378C39.2799 31.4664 39.477 31.5465 39.5513 31.7167C39.6243 31.8843 39.5411 32.0794 39.3669 32.1495L32.0265 35.1332C31.9829 35.1519 31.9394 35.1594 31.8959 35.1594Z" fill="#41404D"/>
<path d="M47.0782 27.4957L57.9897 23.0609V30.253L47.0782 34.7516V27.4957Z" fill="#F4C151"/>
<path d="M47.4179 27.7181V34.2521L57.6508 30.0324V23.5572L47.4179 27.7181ZM47.0773 35.084C47.012 35.084 46.9467 35.0665 46.8891 35.0289C46.7957 34.9676 46.738 34.8638 46.738 34.7525V27.4966C46.738 27.3628 46.82 27.2414 46.948 27.1901L57.8608 22.7541C57.9645 22.709 58.0836 22.7228 58.1783 22.7841C58.2731 22.8454 58.3294 22.948 58.3294 23.0593V30.2526C58.3294 30.3865 58.2475 30.5065 58.1233 30.5591L47.2105 35.059C47.1682 35.0752 47.1234 35.084 47.0773 35.084Z" fill="#41404D"/>
<path d="M33.5583 36.6724C33.4252 36.6724 33.2997 36.5961 33.2459 36.4672C33.1729 36.2996 33.2549 36.1044 33.4277 36.0344L37.4456 34.403C37.6159 34.328 37.8156 34.4105 37.8886 34.5819C37.9603 34.7496 37.8797 34.9447 37.7055 35.0148L33.6889 36.6461C33.6467 36.6649 33.6019 36.6724 33.5583 36.6724Z" fill="#41404D"/>
<path d="M47.1087 21.5277C46.9756 21.5277 46.8501 21.4514 46.795 21.3225C46.7221 21.1549 46.8053 20.9598 46.9781 20.8897L59.9638 15.6117C60.1354 15.5391 60.3352 15.6205 60.4069 15.7906C60.4798 15.9595 60.3979 16.1546 60.2238 16.2234L47.2393 21.5014C47.1958 21.5202 47.1523 21.5277 47.1087 21.5277Z" fill="#41404D"/>
<path d="M26.0058 22.6206C25.8727 22.6206 25.7472 22.5443 25.6921 22.4154C25.6192 22.2478 25.7024 22.0526 25.8752 21.9826L65.2062 5.99346C65.3778 5.92591 65.5775 6.00347 65.6492 6.17235C65.7222 6.34124 65.6403 6.5364 65.4661 6.60645L26.1364 22.5943C26.0929 22.6131 26.0494 22.6206 26.0058 22.6206Z" fill="#41404D"/>
<path d="M37.5971 28.7614C36.9991 30.1663 35.6048 30.9344 34.4832 30.4791C33.3628 30.0237 32.939 28.515 33.537 27.1113C34.1349 25.7065 35.528 24.9371 36.6496 25.3925C37.7712 25.8491 38.195 27.3565 37.5971 28.7614Z" fill="white"/>
<path d="M35.9653 25.5917C35.1471 25.5917 34.2765 26.236 33.8488 27.2381C33.3251 28.4715 33.6695 29.7889 34.6132 30.1742C35.5645 30.5545 36.7591 29.8652 37.2828 28.6354C37.8065 27.4007 37.4646 26.0846 36.5184 25.6981C36.3404 25.6268 36.1548 25.5917 35.9653 25.5917ZM35.1561 30.941C34.8834 30.941 34.6119 30.8923 34.3533 30.7859C33.0601 30.2605 32.5543 28.5541 33.2227 26.9841C33.8911 25.4116 35.4864 24.5621 36.7783 25.0863C38.0715 25.6117 38.5798 27.3169 37.9102 28.8894C37.3763 30.1454 36.2483 30.941 35.1561 30.941Z" fill="#41404D"/>
<path d="M57.0579 21.62L68.2613 16.9688C68.9245 16.6935 69.6595 17.1689 69.6595 17.872V32.7152C69.6595 33.4971 69.187 34.2064 68.4546 34.5217L57.2372 39.3681C56.5739 39.6545 55.8262 39.1792 55.8262 38.4698V23.439C55.8262 22.6458 56.3114 21.9303 57.0579 21.62Z" fill="#F4C151"/>
<path d="M57.0579 21.6194H57.0655H57.0579ZM68.6569 17.2209C68.5685 17.2209 68.4789 17.2384 68.3944 17.2734L57.191 21.9259C56.5675 22.1836 56.1654 22.7779 56.1654 23.4384V38.4692C56.1654 38.6932 56.2755 38.8921 56.4689 39.0134C56.6597 39.136 56.8888 39.1561 57.1014 39.0647L68.3176 34.2183C68.9271 33.9556 69.3201 33.3651 69.3201 32.7146V17.8714C69.3201 17.65 69.2113 17.4523 69.0218 17.3297C68.9104 17.2572 68.7849 17.2209 68.6569 17.2209ZM56.8325 39.7841C56.5751 39.7841 56.3191 39.7115 56.0976 39.5701C55.7147 39.3262 55.4868 38.9159 55.4868 38.4692V23.4384C55.4868 22.5101 56.0502 21.677 56.9247 21.3142L68.1294 16.6617C68.5481 16.489 69.0205 16.5353 69.3982 16.7755C69.7747 17.0207 70 17.4298 70 17.8714V32.7146C70 33.6278 69.4482 34.456 68.5916 34.8251L57.3767 39.6715C57.2013 39.7465 57.0156 39.7841 56.8325 39.7841Z" fill="#41404D"/>
<path d="M58.3787 24.1409L67.6243 20.2541V24.3073L58.3787 28.2705V24.1409Z" fill="white"/>
<path d="M58.7191 24.3602V27.7617L67.2849 24.0913V20.7573L58.7191 24.3602ZM58.3785 28.6024C58.3145 28.6024 58.2492 28.5837 58.1928 28.5474C58.0981 28.4873 58.0392 28.3822 58.0392 28.2696V24.1413C58.0392 24.0087 58.1211 23.8886 58.2453 23.8373L67.491 19.9492C67.5947 19.9042 67.7164 19.9154 67.8124 19.9755C67.9071 20.038 67.9648 20.1418 67.9648 20.2532V24.3077C67.9648 24.4391 67.8854 24.5592 67.7612 24.6105L58.5155 28.5736C58.472 28.5937 58.4259 28.6024 58.3785 28.6024Z" fill="#41404D"/>
<path d="M59.6038 31.4869C59.4706 31.4869 59.3451 31.4106 59.2913 31.2818C59.2184 31.1141 59.3003 30.919 59.4732 30.8489L66.8175 27.864C66.989 27.7915 67.1888 27.874 67.2592 28.0442C67.3335 28.2118 67.2515 28.407 67.0774 28.477L59.7344 31.4607C59.6908 31.4794 59.6473 31.4869 59.6038 31.4869Z" fill="#41404D"/>
<path d="M61.268 33C61.1349 33 61.0094 32.9224 60.9543 32.7948C60.8814 32.6259 60.9646 32.432 61.1374 32.362L65.154 30.7294C65.3256 30.6581 65.5253 30.7369 65.597 30.9083C65.67 31.0772 65.5881 31.2711 65.4139 31.3412L61.3986 32.9737C61.3551 32.9925 61.3116 33 61.268 33Z" fill="#41404D"/>
</svg>
