<svg width="62" height="68" viewBox="0 0 62 68" fill="none" xmlns="http://www.w3.org/2000/svg">
<path d="M5.83333 8.75C2.61158 8.75 0 11.375 0 14.5833V55.4167C0 58.625 2.61158 61.25 5.83333 61.25H23.3333H29.1667H46.6667C49.8896 61.25 52.5 58.625 52.5 55.4167V14.5833C52.5 11.375 49.8896 8.75 46.6667 8.75H29.1667H23.3333H5.83333Z" fill="#BDC3C7"/>
<path d="M5.83333 5.83337C2.61158 5.83337 0 8.44496 0 11.6667V52.5C0 55.723 2.61158 58.3334 5.83333 58.3334H23.3333H29.1667H46.6667C49.8896 58.3334 52.5 55.723 52.5 52.5V11.6667C52.5 8.44496 49.8896 5.83337 46.6667 5.83337H29.1667H23.3333H5.83333Z" fill="#ECF0F1"/>
<path d="M5.83333 5.83337C2.61158 5.83337 0 8.44496 0 11.6667V20.4167V23.3334H52.5V20.4167V11.6667C52.5 8.44496 49.8896 5.83337 46.6667 5.83337H29.1667H23.3333H5.83333Z" fill="#E74C3C"/>
<path d="M13.125 13.125C13.125 13.6995 13.0118 14.2684 12.792 14.7992C12.5721 15.33 12.2498 15.8123 11.8436 16.2186C11.4373 16.6248 10.955 16.9471 10.4242 17.167C9.89344 17.3868 9.32453 17.5 8.75 17.5C8.17547 17.5 7.60656 17.3868 7.07576 17.167C6.54496 16.9471 6.06266 16.6248 5.65641 16.2186C5.25015 15.8123 4.92789 15.33 4.70803 14.7992C4.48816 14.2684 4.375 13.6995 4.375 13.125C4.375 12.5505 4.48816 11.9816 4.70803 11.4508C4.92789 10.92 5.25015 10.4377 5.65641 10.0314C6.06266 9.62515 6.54496 9.30289 7.07576 9.08303C7.60656 8.86316 8.17547 8.75 8.75 8.75C9.32453 8.75 9.89344 8.86316 10.4242 9.08303C10.955 9.30289 11.4373 9.62515 11.8436 10.0314C12.2498 10.4377 12.5721 10.92 12.792 11.4508C13.0118 11.9816 13.125 12.5505 13.125 13.125Z" fill="#C0392B"/>
<path d="M8.75001 0C7.13914 0 5.83334 1.30579 5.83334 2.91667V11.6667C5.83334 13.2775 7.13914 14.5833 8.75001 14.5833C10.3609 14.5833 11.6667 13.2775 11.6667 11.6667V2.91667C11.6667 1.30579 10.3609 0 8.75001 0Z" fill="#BDC3C7"/>
<path d="M48.125 13.125C48.125 13.6995 48.0118 14.2684 47.792 14.7992C47.5721 15.33 47.2498 15.8123 46.8436 16.2186C46.4373 16.6248 45.955 16.9471 45.4242 17.167C44.8934 17.3868 44.3245 17.5 43.75 17.5C43.1755 17.5 42.6066 17.3868 42.0758 17.167C41.545 16.9471 41.0627 16.6248 40.6564 16.2186C40.2502 15.8123 39.9279 15.33 39.708 14.7992C39.4882 14.2684 39.375 13.6995 39.375 13.125C39.375 12.5505 39.4882 11.9816 39.708 11.4508C39.9279 10.92 40.2502 10.4377 40.6564 10.0314C41.0627 9.62515 41.545 9.30289 42.0758 9.08303C42.6066 8.86316 43.1755 8.75 43.75 8.75C44.3245 8.75 44.8934 8.86316 45.4242 9.08303C45.955 9.30289 46.4373 9.62515 46.8436 10.0314C47.2498 10.4377 47.5721 10.92 47.792 11.4508C48.0118 11.9816 48.125 12.5505 48.125 13.125Z" fill="#C0392B"/>
<path d="M43.75 0C42.14 0 40.8334 1.16667 40.8334 2.91667V11.6667C40.8334 13.125 42.14 14.5833 43.75 14.5833C45.36 14.5833 46.6667 13.125 46.6667 11.6667V2.91667C46.6667 1.16667 45.36 0 43.75 0Z" fill="#BDC3C7"/>
<path d="M5.83334 29.1666V35H11.6667V29.1666H5.83334ZM14.5833 29.1666V35H20.4167V29.1666H14.5833ZM23.3333 29.1666V35H29.1667V29.1666H23.3333ZM32.0833 29.1666V35H37.9167V29.1666H32.0833ZM40.8333 29.1666V35H46.6667V29.1666H40.8333Z" fill="#BDC3C7"/>
<path d="M5.83334 37.9166V43.75H11.6667V37.9166H5.83334ZM14.5833 37.9166V43.75H20.4167V37.9166H14.5833ZM23.3333 37.9166V43.75H29.1667V37.9166H23.3333ZM32.0833 37.9166V43.75H37.9167V37.9166H32.0833ZM40.8333 37.9166V43.75H46.6667V37.9166H40.8333Z" fill="#BDC3C7"/>
<path d="M5.83334 46.6666V52.5H11.6667V46.6666H5.83334ZM14.5833 46.6666V52.5H20.4167V46.6666H14.5833ZM23.3333 46.6666V52.5H29.1667V46.6666H23.3333ZM32.0833 46.6666V52.5H37.9167V46.6666H32.0833ZM40.8333 46.6666V52.5H46.6667V46.6666H40.8333Z" fill="#BDC3C7"/>
<path d="M59.6449 51.1826C59.6449 55.0113 58.1239 58.6831 55.4167 61.3904C52.7094 64.0976 49.0376 65.6186 45.2089 65.6186C41.3803 65.6186 37.7085 64.0976 35.0012 61.3904C32.2939 58.6831 30.773 55.0113 30.773 51.1826C30.773 47.354 32.2939 43.6822 35.0012 40.9749C37.7085 38.2676 41.3803 36.7467 45.2089 36.7467C49.0376 36.7467 52.7094 38.2676 55.4167 40.9749C58.1239 43.6822 59.6449 47.354 59.6449 51.1826Z" fill="#34495E"/>
<path d="M45.2083 37.9166C44.4033 37.9166 43.75 38.57 43.75 39.375V40.8333V49.5833V51.0416C43.75 51.8466 44.4033 52.5 45.2083 52.5H46.6667H52.5H53.9583C54.7633 52.5 55.4167 51.8466 55.4167 51.0416C55.4167 50.2366 54.7633 49.5833 53.9583 49.5833H52.5H46.6667V40.8333V39.375C46.6667 38.57 46.0133 37.9166 45.2083 37.9166Z" fill="#BDC3C7"/>
<path d="M45.2084 35C36.3475 35 29.1667 42 29.1667 51.0417C29.1667 59.7917 36.3475 67.0833 45.2084 67.0833C54.0692 67.0833 61.25 59.7917 61.25 51.0417C61.25 42 54.0692 35 45.2084 35ZM45.2084 37.9167C52.4563 37.9167 58.3334 43.75 58.3334 51.0417C58.3334 58.0417 52.4563 64.1667 45.2084 64.1667C37.9604 64.1667 32.0834 58.0417 32.0834 51.0417C32.0834 43.75 37.9604 37.9167 45.2084 37.9167Z" fill="#7F8C8D"/>
<path d="M46.6667 51.0417C46.6667 51.8467 46.0133 52.5 45.2083 52.5C44.4033 52.5 43.75 51.8467 43.75 51.0417C43.75 50.2367 44.4033 49.5834 45.2083 49.5834C46.0133 49.5834 46.6667 50.2367 46.6667 51.0417Z" fill="#95A5A6"/>
</svg>
