<svg width="70" height="60" viewBox="0 0 70 60" fill="none" xmlns="http://www.w3.org/2000/svg">
<path d="M63.421 0H6.57896C2.94915 0.00736863 0.002772 3.19525 0 7.12792V52.8737C0.002772 56.8064 2.9489 59.9943 6.57896 60H63.421C67.0493 59.994 69.9972 56.8064 70 52.8737V7.12819C69.9972 3.19526 67.0496 0.00764154 63.421 0ZM62.721 4.568C63.5468 4.568 64.2194 5.29504 64.2194 6.18801C64.2194 7.0807 63.5468 7.80638 62.721 7.80638C61.8954 7.80638 61.2254 7.08098 61.2254 6.18801C61.2254 5.29504 61.8952 4.568 62.721 4.568ZM50.966 4.66407H58.3216C59.1008 4.66407 59.727 5.34826 59.727 6.18774C59.727 7.02885 59.1008 7.7114 58.3216 7.7114H50.966C50.1865 7.7114 49.5578 7.02885 49.5578 6.18774C49.558 5.34826 50.1868 4.66407 50.966 4.66407ZM66.4123 52.874C66.407 54.6433 65.0535 56.1107 63.421 56.1137H6.57896C4.94524 56.1107 3.59301 54.6433 3.58747 52.874V11.6973H66.4123V52.874Z" fill="#675F58"/>
<path d="M19.6683 37.2148C19.6683 36.5707 19.4456 36.0792 18.9978 35.737C18.55 35.398 17.8985 35.2264 17.044 35.2264V32.5712C17.9053 32.5712 18.5583 32.4099 19.002 32.0827C19.4463 31.7598 19.6686 31.2921 19.6686 30.6851V30.5961V27.0649C19.6686 25.9324 20.0007 25.1357 20.6632 24.6723C21.3262 24.2089 22.4917 23.978 24.1597 23.978V26.4757C23.4829 26.4981 23.0167 26.6403 22.7604 26.8976C22.5046 27.1569 22.3763 27.5387 22.3763 28.0422V31.3619C22.3352 32.7552 21.5354 33.5753 19.9763 33.8285V33.9603C21.5767 34.2207 22.3763 35.0056 22.3763 36.3145V36.4152V39.7346C22.3763 40.2398 22.5021 40.6199 22.7563 40.8792C23.0086 41.1382 23.4776 41.279 24.1597 41.3011V43.8122C22.4917 43.8122 21.3262 43.5783 20.6632 43.1179C20.0007 42.6545 19.6686 41.8532 19.6686 40.7119V37.2148H19.6683Z" fill="#FF931E"/>
<path d="M26.7689 45.6767C25.9683 45.6767 25.2821 45.5848 24.7078 45.3997V42.7331C25.1861 42.8753 25.675 42.9462 26.174 42.9462C26.6996 42.9462 27.0844 42.7863 27.3266 42.4665C27.57 42.1482 27.6918 41.6802 27.6918 41.0569V27.7977H30.8186V41.5574C30.8186 42.8753 30.4665 43.8911 29.7632 44.6061C29.0588 45.3198 28.0609 45.6767 26.7689 45.6767ZM27.5584 24.5891C27.5584 23.4846 28.1252 22.9336 29.2599 22.9336C30.3955 22.9336 30.9622 23.4843 30.9622 24.5891C30.9622 25.1131 30.8206 25.5233 30.5368 25.8166C30.2526 26.1084 29.8285 26.2549 29.2599 26.2549C28.1252 26.2549 27.5584 25.6982 27.5584 24.5891Z" fill="#FF931E"/>
<path d="M43.1484 36.5276C43.1484 37.7994 42.7397 38.7693 41.9235 39.4355C41.106 40.1017 39.8835 40.4349 38.2581 40.4349C37.4227 40.4349 36.7119 40.373 36.1247 40.2512C35.5368 40.1301 34.9857 39.9505 34.4736 39.7136V36.9138C35.0547 37.2099 35.7094 37.4585 36.4382 37.6583C37.1657 37.8581 37.807 37.9591 38.3607 37.9591C39.4954 37.9591 40.0614 37.6021 40.0614 36.8931C40.0614 36.6251 39.9876 36.4103 39.8372 36.243C39.6865 36.0757 39.4269 35.8877 39.0577 35.6759C38.6885 35.4657 38.1964 35.2185 37.5813 34.9387C36.698 34.5373 36.0509 34.1689 35.6383 33.8283C35.2236 33.4877 34.9227 33.0952 34.7362 32.6556C34.5474 32.2145 34.4532 31.6723 34.4532 31.0298C34.4532 29.9254 34.8483 29.0725 35.6383 28.4699C36.4274 27.866 37.5455 27.5638 38.9947 27.5638C40.3757 27.5638 41.7209 27.8897 43.0252 28.5411L42.082 30.9842C41.5077 30.719 40.9719 30.5001 40.4712 30.3298C39.9735 30.1598 39.465 30.0738 38.9441 30.0738C38.0213 30.0738 37.5591 30.3448 37.5591 30.8868C37.5591 31.1889 37.7095 31.4509 38.0061 31.6731C38.3027 31.8966 38.9537 32.2252 39.9599 32.6621C40.8552 33.0532 41.5102 33.4203 41.9285 33.7609C42.3453 34.1012 42.653 34.4936 42.8498 34.9393C43.0499 35.383 43.1484 35.9117 43.1484 36.5276Z" fill="#FF931E"/>
<path d="M50.3302 40.7119C50.3302 41.541 50.1894 42.169 49.9107 42.5893C49.6304 43.0115 49.167 43.321 48.5214 43.5177C47.8735 43.7131 46.9822 43.8122 45.8388 43.8122V41.3011C46.5157 41.2878 46.9819 41.1529 47.2389 40.9029C47.4962 40.6497 47.6245 40.2616 47.6245 39.7346V36.4152V36.2924C47.6245 35.6557 47.8241 35.1388 48.2288 34.745C48.6307 34.3481 49.2267 34.0861 50.0115 33.9603V33.8285C48.4612 33.5753 47.6653 32.7549 47.6243 31.3619V28.0422C47.6243 27.524 47.4957 27.1389 47.2442 26.8873C46.9912 26.634 46.5223 26.4978 45.8386 26.4757V23.978C46.9817 23.978 47.8758 24.0757 48.5252 24.2728C49.1746 24.4682 49.638 24.779 49.9157 25.2042C50.1919 25.6305 50.33 26.2495 50.33 27.0652V30.5964V30.7075C50.33 31.3292 50.5407 31.7942 50.9617 32.1067C51.3816 32.4178 52.0461 32.5715 52.9566 32.5715V35.2266C52.1008 35.2266 51.4496 35.3792 51.0013 35.681C50.5545 35.9862 50.33 36.4968 50.33 37.2151V40.7119H50.3302Z" fill="#FF931E"/>
</svg>
