<svg width="32" height="32" viewBox="0 0 32 32" fill="none" xmlns="http://www.w3.org/2000/svg">
<path d="M26.0182 24.6966H22.0634V18.6429C22.0634 17.1985 22.0342 15.3401 20.0073 15.3401C17.9454 15.3401 17.6308 16.9132 17.6308 18.5381V24.6966H13.676V12.2458H17.4736V13.947H17.526C18.056 12.9677 19.3491 11.9355 21.2712 11.9355C25.2785 11.9355 26.0182 14.5135 26.0182 17.8674V24.6966ZM9.21438 10.5441C7.93881 10.5441 6.91954 9.53637 6.91954 8.29522C6.91954 7.05976 7.93881 6.05769 9.21438 6.05769C10.4783 6.05769 11.5093 7.05976 11.5093 8.29522C11.5093 9.53637 10.4783 10.5441 9.21438 10.5441ZM11.1947 24.6966H7.22823V12.2458H11.1947V24.6966ZM26.3852 0H5.61482C2.52782 0 0 2.47088 0 5.48835V26.5139C0 29.5314 2.52782 32 5.61482 32H26.3852C29.4722 32 32 29.5314 32 26.5139V5.48835C32 2.47088 29.4722 0 26.3852 0Z" fill="#0872F7"/>
</svg>
